<svg xmlns="http://www.w3.org/2000/svg" viewBox="-36 -93 2118 2118"><path fill="#12161a" d="M539.64 869.853c.973-3.213 2.88-8.065 2.51-11.449-.815-7.458-21.124-11.419-27.832-13.46-61.837-18.82-124.706-48.582-176.023-88.219-66.505-51.368-112.107-123.456-122.753-207.797-9.561-75.734 9.409-153.189 56.719-213.707 51.399-65.75 126.48-104.802 208.673-115.023 40.487-5.034 166.963-3.556 197.404 21.106 10.481 8.49 15.159 20.001 16.277 33.102 25.715 23.315 39.341 43.555 51.697 75.859 39.72 103.849-36.964 172.041-17.99 274.32 112.753-36.618 216.612 15.972 300.198 88.813 19.55 17.029 37.49 37.846 54.17 57.61 31.05 1.382 67.95.645 99.19-.086 3.22 1.935 6.04 4.377 8.96 6.751 23.44 19.973 44.76 47.542 62.29 72.678 16.19-18.353 41.94-48.807 59.17-64.822 21.36-20.282 112.9-100.414 139.68-99.96 1.93 1.017 3.93 1.991 4.21 4.586 4.17 37.517-.23 77.083-4.13 114.546-1.17 11.292-6.7 22.883-8.05 33.44-3.07 24.09-6.9 47.845-10.59 71.853-4.15 26.956 4.37 58.126-9.68 82.95-7.58 13.096-25.14 14.576-34.66 23.346-6.76 6.22-10.87 19.34-17.21 27.92 51.85 54.95 103.21 114.04 153.86 170.44l223.08 246.68c77.69 85.73 157.88 168.3 236.62 252.68-65.62 1.56-133.87.73-199.71.75l-349.28.32-915.086.84-338.78-621.78-66.236-120.993c-4.508-8.127-27.169-47.1-28.957-53.105-3.42-4.383-25.224-44.243-27.34-50.158 5.553-1.234 38.68-.694 46.06-.719l117.096-.148 212.998.132 63.412-.093c11.6-.02 28.917-.452 40.033.797"/><path fill="#56626f" d="M521.35 220.52c30.018-1.091 121.746 5.499 147.772 18.734a41.06 41.06 0 0 1 20.346 24.188c3.433 10.611 2.282 21.051-3.112 30.797-15.171 27.41-48.309 21.231-74.254 21.762-47.22.967-99.882-3.473-145.534 10.287a189.5 189.5 0 0 0-112.3 91.18 185.27 185.27 0 0 0-13.794 141.046c32.011 102.742 139.953 149.543 232.325 184.771 60.423 23.044 80.744 21.344 125.931 74.356C780.867 914 835.29 1036.12 871.753 1156.27c4.142 11.47 8.543 27.63 12.431 39.8-100.325-26.51-197.009-66.73-267.772-145.52-42.607-47.45-71.849-108.968-72.78-173.525-.381-26.402 9.499-23.659-20.884-33.065-83.579-26.013-165.954-64.839-226.132-129.979-102.714-111.182-110.347-286.526-3.31-398.234 63.321-66.083 138.488-91.844 228.044-95.227"/><path fill="#8e9aa8" d="M530.013 319.425q40.118-.429 80.237-.307c35.308.113 77.781 6.053 84.34-41.33 53.574 53.966 70.725 114.864 53.179 189.546-13.977 59.487-35.047 96.733-21.646 161.269 44.081-15.389 105.289-17.211 150.615-1.978 83.977 28.221 163.142 88.823 213.852 161.455 17.91 25.647 27.61 52.947 41.29 79.18l-1.03 1.813c-4.34.031-8.8-.013-13.13.246-17.48-19.358-33.83-39.823-51.52-59.04-39.56-42.914-83.214-83.523-131.603-116.342-7.99-5.419-20.249-14.326-29.577-15.956-6.821-1.192-7.857 18.874-8.2 23.302a401.7 401.7 0 0 0 3.758 90.046c1.902 12.481 5.39 25.872 6.673 38.241 2.378 22.926 4.477 45.505 7.852 68.345 2.497 16.891-.994 35.609 2.718 52.525 2.697 13.167 9.589 29.231 15.144 41.49-33.305 52.39-46.643 143.28-42.575 204.66l-1.956.94c-8.961-24.83-15.747-51.12-24.529-76.16-21.925-62.52-48.728-129.208-80.866-187.254a757.4 757.4 0 0 0-60.367-92.805c-13.254-17.101-28.264-32.154-41.942-48.751-54.813-66.509-67.869-155.828-60.734-239.43a447 447 0 0 1 6.171-44.751c5.108-26.145 17.158-76.152 14.605-101.842a67.1 67.1 0 0 0-10.985-30.811c-21.696-33.12-62.737-48.711-99.774-56.301"/><path fill="#8e9aa8" d="M934.401 994.935c11.221 24.635 20.128 33.625 35.406 55.045 7.411 12.57 13.313 25.82 20.621 38.51 6.91 11.99 16.092 23.04 22.592 35.14a718 718 0 0 1 49.62 112.58c16.7 48.78 27.27 101.33 55.71 144.8-31.16.69-62.67.15-93.84.51-6.13.06-31.85-.49-36.061.33l-.237 1.13c5.91 2.82 33.328 1.52 41.618 1.54 31.25.31 62.51.14 93.75-.53l9.02 6.65c17.72 14.76 56.28 32.93 77.01 42.88 47.15 22.63 93.97 38.03 137.99 67.44 19.5 13.03 28.56 22.46 45.85 36.26 17.68 14.11 23.62 15.28 40.85 33.36 12.5 16.08 22.38 36.2 17.61 57.07-2.5 10.94-9.17 16.26-17.35 22.78-1.22 36.52-21.06 59.71-61.79 47.75-6.47-1.9-11.6-6.61-16.58-11.08-7.53-.41-16.81-.66-24-2.94-46.2-14.7-42.44-72.82-80.95-99.38-58.58-40.42-147.2-46.63-208.16-77.85-71.162-39.05-105.341-126.02-127.409-199.27-19.89-66.02-27.763-126.07-18.328-194.04 6.084-43.83 15.815-79.76 37.058-118.685"/><path fill="#8e9aa8" d="M903.383 679.777c45.085 16.913 130.187 98.912 163.187 135.418 12.87 14.229 38.41 46.839 51.1 57.911 11.44-1.757 24.34-2.545 35.98-3.336 3.55.357 9.6-.132 13.44-.342 24.02-1.314 48.32 1.745 72.27 1.06 7.53-7.031 21.16-23.619 28.5-32.111 15.83-18.287 30.29-34.003 47.37-51.187 31.41-30.329 93.06-83.826 133.8-97.73-38.05 38.118-79.25 71.072-110.9 115.167-20.59 28.675-34.23 59.556-55.82 87.524-18.31 23.73-42.07 3.861-50.89 5.934.56 1.689 1.8 2.432 3.46 2.923 50.22 14.884 99.81 38.875 119.64 90.958 1.54 4.041 4.98 22.854 7.06 24.434.92-8.86-.57-13.55-2.97-21.992 10.91-8.623 30.55-23.145 38.4-33.502 13.23-17.457 13.79-48.26 19.68-68.974 4.92-17.326 13.61-35.086 23.51-50.131-2.63 23.746-7.02 46.654-10.1 70.685-3.38 26.417 6.05 65.57-15.23 85.746-7.28 6.898-21.63 8.788-28.69 16.568-17.37 20.55-17.02 36.29-23.48 58.1-13.35 45.08-57.55 74.33-100.4 87.43-.55-10.64-3.06-21.36-11.31-28.84-.52-.46-1.05-.92-1.59-1.36l-1.34.43c-.08 3.49 4.69 7.79 6.64 11.57 11.88 23.13-5.42 56.79-33.01 55.17-20.17-1.18-34.04-14.54-50.94-23.29 5.87-29.14 20.51-28.22 39.49-47.43 1.6-1.62.76-3.41.25-5.19-4.18-4.15-11.56-5.93-17.13-5.44-14.01 1.23-51.52-3.99-61.97 3.6-5.48 19.07 33.72 20.42 34.85 55.46l-1.39.57c-19.13 7.9-42.13 27.45-63.89 19.7-17.55-6.26-26.93-31.47-19.55-48.06 2.45-5.68 9.58-12.31 11.4-18.18l-1.12-.75c-9.69 6.78-14.05 20.19-16.37 31.34-34.81-12.26-65.13-42.66-82.979-74.26-7.531-13.34-14.017-27.78-21.82-40.61 4.506 2.14 4.711 3.12 8.984 2.85 4.084-4.31 1.722-13.78 2.458-19.6 3.367-26.62 8.767-54.087 27.477-74.563 20.6-22.55 49.87-35.511 78.16-45.256 3.3-1.139 18.87-5.919 20.22-8.258-9 .556-14.01 3.337-22.31 5.336-12.28-3.041-17.75-5.503-24.42-17.315-8.28-14.669-14.78-30.284-23.31-44.833-28.34-49.877-66.836-93.824-106.935-134.545-8.431-8.561-20.475-19.606-27.462-28.799"/><path fill="#12161a" d="M1278.18 990.441c21.7 1.563 36.34 10.029 47.09 29.269-2.7 4.84-5.43 9.66-8.19 14.47-21.2 36.32-58.37 43.89-93.58 21.79-1.42-1.02-1.95-1.18-3.53-1.94-4.57 6.41 1.3 37.54 0 47.9l-1.18.79c-1.93-2.71-2.07-7.03-2.31-10.34-1.85-25.84-4.54-53 10.77-75.55 13.31-19.594 29.23-24.617 50.93-26.389"/><path fill="#d2ee9a" d="M1266.36 994.271c25.02-2.403 40.83 2.708 54.7 24.969-3.94 9.56-8 17.13-14.56 25.12-22.33 27.26-61.69 26.24-87.38 4.01l1.75-10.26c7.17-22.03 17.34-34.72 39.65-42.812-5.68 13.892-14.92 39.632-4.94 54.572 9.96 14.91 24.52-4.02 24.17-17.29-.43-16.41-2.35-25.32-13.39-38.309"/><path fill="#d2ee9a" d="M1240.06 1028.31c2.51.83 2.16.78 4.49 2.16 3.94 6.49 2.44 9.76-3.02 14-4.13-1.97-4.87-2.32-5.97-6.51.72-4.29 2.13-5.86 4.5-9.65"/><path fill="#12161a" d="M1061.01 990.145c44.47-2.509 65.84 25.105 66.12 67.195.06 8.96-.27 35.54-5.11 42.45l-1.56-.51c.6-8.32 5.94-36.05 2.21-42.67l-2.04.66c-32.91 16.7-70.62 12.66-89.03-23.48-3.72-7.29-4.08-13.11-3.99-21.09-3.86 1.72-6.03 3.13-10.13 3.19l-.27-1.1c3.92-3.19 6.78-3.3 11.76-4.33l.9-1.45c7.14-11.622 18.6-15.663 31.14-18.865"/><path fill="#d2ee9a" d="M1033.52 1007.94c13.32-12.608 25.3-15.468 42.99-14.953l2.05.066c-4.33 5.797-7.78 10.547-10.41 17.437-3.19 12.03-4.41 25.97 1.26 37.42 3.2 6.46 11.83 9.21 16.66 3.46 13.01-15.5 4.89-41.61-2.04-57.213 29.04 12.223 37.93 27.463 38.74 58.033-26.76 15.93-53.27 16.76-77.47-4.7-3.5-3.94-5.11-5.5-7.46-10.29-6.86-7.94-10.02-19.83-4.32-29.26"/><path fill="#d2ee9a" d="M1042.08 1030.84c2.35-2.48 3.45-4.23 6.74-4.95 3.62 1.05 2.17.07 4.47 3.09.86 3.91.63 3.9-.28 7.95l-2.79 3.41c-7.09-.04-6.36-3.29-8.14-9.5"/><path fill="#8fae5c" d="m1037.84 1037.2 1.38-.29 2.31 1.76.53-2.3-1.11.91c1.78-2.82 1.16-2.44 1.13-6.44 1.78 6.21 1.05 9.46 8.14 9.5 3.29.46 4.63.87 7.73 1.8-3.55 3.01-7.61 1.77-12.65 5.35-3.5-3.94-5.11-5.5-7.46-10.29"/><path fill="#6f7c8b" d="M1098.78 1007.67c4.61 4.88 6.49 38.46 6.89 46.63-5.3-3.84-3.22-34.88-6.89-46.63"/><path fill="#8fae5c" d="M1043.22 1017.63c.23-6 6.95-16.25 14.01-16.79l.59 1.38c-3.02 3.26-4.33 4.76-6.5 8.61l-.84.86 1.88 1.08-1.35 1.23c-4.11.15-4.42.83-7.79 3.63"/><path fill="#6f7c8b" d="M504.228 322.377c43.697-4.463 119.779 26.639 131.636 73.618 7.766 30.773-9.315 88.098-14.255 121.773-10.189 69.461-9.042 132.548 12.92 199.915-10.822 13.138-14.732 20.671-21.567 36.15-26.315-8.849-61.726-22.508-87.208-33.332-8.861-3.538-17.649-7.892-26.27-11.992-78.758-37.459-151.385-88.75-162.37-182.891a180.9 180.9 0 0 1 37.544-133.658c33.315-41.812 77.085-63.59 129.57-69.583"/><path fill="#56626f" d="M1365.32 1076.64c4.7 5.02 9.38 30.66 10.44 38.12 4.15 29.11-.7 58.75 2.33 88.02 2.05 21.63 7.85 42.74 17.16 62.37 14.16 29.88 35.33 56.01 59.61 78.35 10.11 9.29 28.79 23.49 36.54 34.13 15.77 21.42 26.36 45.47 46.7 63.48 13.97 11.87 32.23 19.77 49.29 27 44.15 18.71 37.29 83.97-6.08 98.51-21.24 7.11-43.17 3.36-63.55-6.52-7.77-4.65-25.45-21.15-30.12-22.77-21.35-7.42-29.95-3.26-49.87-19.21-28.18-22.57-29.64-54.78-50.81-80.91-8.66-10.7-28.32-21.92-38.86-31.43-27.58-21.79-59.25-45.7-82.05-72.5 58.89-50.97 120.13-144.71 80.47-223.61 7.89-10.08 13.14-21.59 18.8-33.03"/><path fill="#8e9aa8" d="M1343.9 1112.76c7.81 7.72 13.16 41.23 12.83 52.12-1.55 50.87-36.71 110.69-71.2 145.83-42.53 43.33-103.39 70.94-164.05 70.83-2.28-4.71-5.53-9.29-8.03-13.95-19.91-37.05-31.05-79.04-43.46-119.09-16.55-50.87-29.5-77.82-53.22-124.71 17.69 16.86 35.49 32.41 59.53 38.77 3.75 21.81 6.83 24.84 24.46 36.69 16.82 11.32 27.34 19.56 48.3 21.94 29.54 3.35 55.88-1.24 79.86-19.45 5.05-3.82 12.96-6.56 18.36-11.07 8.7-7.28 12.78-16.19 14.11-27.15 33.82-9.9 58.73-24.63 82.51-50.76"/><path fill="#c9d0d8" d="M1452.76 689.896c6.02 10.06-1.54 82.233-1.7 96.882-.4 37.543-21.85 63.724-35.03 97.087-8.68 21.962-7.17 52.349-19.59 72.499-6.81 11.041-28.25 26.823-39.08 35.591a126.4 126.4 0 0 0-39.3-54.219c-15.23-13.031-37.82-22.939-55.95-31.09 6.33-1.657 13.61-3.662 18.24-8.46 17.48-18.112 31.3-46.489 44.24-67.994a331 331 0 0 1 25.69-36.58c31.62-39.411 66.64-68.173 102.48-103.716m-550-6.339c2.768 2.51 6.329 7.063 9.248 9.971 57.457 57.232 112.102 118.201 145.002 193.275 5.27 12.013 12.13 16.975 24.24 20.595-22.41 8.58-41.64 17.108-60.78 31.809-20.591 16.322-30.998 34.868-36.481 60.367-11.053-27.697-14.234-29.378-33.342-50.323-12.211-13.386-9.541-56.665-14.539-75.578-5.369-20.316-15.242-34.394-24.91-52.89-13.895-34.446-14.852-101.935-8.438-137.226"/><path fill="#56626f" d="M656.048 1092.11c54.179 45.61 120.677 75.48 187.975 96.02 10.107 3.08 33.974 10.03 44.04 10.92l.371-1.52 1.956-.94c4.82 47.41 12.931 79.69 25.847 125.33-24.318 10.46-37.445.9-55.416-14.44q-2.025.345-4.06.63c-10.79 1.53-25.771.89-34.388-6.28-17.178-14.31-32.192-30.33-49.266-45.32-30.063-26.41-60.786-52.1-90.463-78.86-4.215-3.8-16.058-16.12-18.3-21.07-9.992-22.05-11.264-40.74-8.296-64.47"/><path fill="#8e9aa8" d="M911.008 829.654c2.81 2.273 6.804 9.368 8.945 12.852 12.999 20.343 16.93 48.847 18.252 72.287 1.793 31.777 9.764 37.486 30.555 59.474 4.821 5.099 8.55 20.379 15.109 28.213-3.142 10.73-4.693 27.16-5.895 38.59.064 2.33.268 1.16-.738 3.49-3.326.34-8.939-3.97-11.091-6.37-21.704-24.21-39.365-61.358-45.58-93.058-2.689-13.717.23-30.156-1.8-44.118-2.997-23.922-6.761-47.444-7.757-71.36M1168.3 1178.22c13.2 1.27 25.04 19.36 55.59 22.56-18.17 14.86-35.63 17.95-58.57 18.19-24.92-.32-37.23-3.75-56.99-18.53 28.96-2.16 37.42-15.31 59.97-22.22M634.817 720.654c2.455 2.292 10.308 21.225 13.101 26.737 6.44 12.708 13.272 23.149 20.861 35.154l-10.19-7.401c-15.27-10.238-25.933-14.985-43.197-20.842 6.753-13.737 10.929-21.126 19.425-33.648"/></svg>