<svg xmlns="http://www.w3.org/2000/svg" viewBox="-2 -45 2051 2051"><defs><linearGradient id="b" x1="1221.69" x2="1204.93" y1="1241.01" y2="1234.08" gradientUnits="userSpaceOnUse"><stop class="stop0" offset="0" stop-color="#6f7c8b"/><stop class="stop1" offset="1" stop-color="#8e9aa8"/></linearGradient><linearGradient id="a" x1="1156.28" x2="1161.76" y1="1215.52" y2="1175.73" gradientUnits="userSpaceOnUse"><stop class="stop0" offset="0" stop-color="#8e9aa8"/><stop class="stop1" offset="1" stop-color="#6f7c8b"/></linearGradient></defs><path fill="#12161a" d="M565.421 163.413c20.613-2.441 49.734 1.817 69.63 7.306 86.335 23.819 153.059 92.634 195.915 169.019 32.849 4.79 77.112 3.105 111.202 3.044l164.892-.005 621.35.328c1.31 33.985-.23 78.887-.28 113.889l-.04 232.462-.28 689.514c-65.62 1.23-135.98.2-201.81-.06 16.93 16.59 33.94 33.43 51.73 49.07 6.12 5.38 15.66 14.56 22.28 18.86 65.49.2 130.97-.05 196.45-.73 25.61-.05 64.79-1.24 89.34.53l47.33 244.78c6.46 33.17 18.04 81.59 22.04 113.06l-952.41-.17-616.468-.04-183.383-.03c-36.886.02-75.107.53-111.864-.23l75.934-360.11c27.895-.76 58.635-.03 86.809 0l156.572-.15 532.859-.45c-25.145-20.8-43.539-36.94-65.174-61.07l-203.814-.17c-.013 11.43 3.024 31.63-6.958 38.9-6.062 4.42-13.125 3.75-20.094 2.31-13.126-2.73-26.196 3.8-39.751 2.18-2.233.84-16.261-3.93-16.147-3.97-20.542 7.68-58.177 6.49-70.564-14.94-4.538-7.86-4.781-15.48-5.23-24.84-64.197.3-131.3.76-195.436-.24-1.786-218.91 1.571-438.905-.016-657.895-.123-16.897-4.993-13.301-6.181-25.278-3.917-39.518-6.156-78.463-5.992-118.207a900 900 0 0 1 5.935-92.957c2.949-23.571 8.595-46.279 7.672-70.054-.227-5.867-.095-12.045-.148-17.942a3847 3847 0 0 1-.052-55.196c8.95-.007 16.278-.068 25.232.85 38.884-96.639 109.888-172.145 218.92-181.368"/><path fill="#3a434d" d="M559.755 166.32c102.647-10.952 195.942 62.363 249.659 143.341 6.132 9.244 16.371 23.914 20.083 33.927 21.002.641 46.868 8.193 66.843 15.272 168.87 59.852 250.46 308.931 278.98 468.447a1144 1144 0 0 1 13.77 102.668c5.58 65.412-5.04 77.995 47.84 128.475-27.73.62-34.8 2.31-61.78 9.29-17.83-41.7-56.6-99.659-96.61-120.287-52.66-27.151-69.51 76.807-70.49 108.267-1.01 32.47 5.03 57.59 17.66 86.69-16.44 81.55-.58 153.03 75.46 197.49 46.09 26.95 93.92 45.61 144.83 61.18 5.45 5.65 10.02 12.2 15.02 18.25 55.44 67.13 139.13 116.87 213.57 160.02-36.16 19.2-49.79 35.52-62.09 73.43-31.11-9.68-62.66-23.22-93.96-33.62-171.69-57.04-348.457-120.92-463.34-269.02-51.713-66.66-73.199-129.16-99.136-208.64-40.795-128.23-66.467-263.72-161.173-365.947-7.658-8.266-14.451-16.488-25.051-21.051.798 2.193 20.547 20.787 23.42 23.929 49.762 54.404 84.932 125.284 108.348 194.45-7.84 25.243-17.057 44.239-31.155 66.589-17.14 27.17-37.417 52.61-48.744 82.94-8.191 21.93-11.169 44.47-14.168 67.49-37.283-2.1-80.306.32-118.752-1.01-4.382-21.86-9.562-43.9-14.37-65.72-51.401-233.303-52.323-538.578 143-710.523a299.5 299.5 0 0 1 77.29-49.219c5.608-2.412 36.565-12.208 38.316-14.508l-.646-.881c-6.616.947-11.176 3.847-15.814-1.6-13.101-15.388-26.457-27.889-41.883-40.879-24.314-21.763-73.956-44.494-107.417-38.226-149.916 28.082-154.526 247.907-148.015 366.729 1.651 30.133 14.002 64.353-9.715 89.326-31.614 33.288-90.496 15.461-93.766-31.901-11.698-143.46-8.4-314.541 82.79-433.895 38.576-50.49 98.008-84.774 161.196-91.273"/><path fill="#c9d0d8" d="M1287.87 1445.25c18.06 1.55 51.98-2.23 66.88 1.7 15.56 4.1 42.39 22.66 58.32 31.06 51.8 27.29 103.37 54.72 154.7 82.89 24 13.17 47.47 26.82 70.89 41 9.72 5.88 20.08 11.37 29.34 17.91 12.67 8.95 19.6 21.22 30.8 31.23 3.82 3.42 8.09 6.43 13.16 7.55 17.44 3.85 50.94 1.57 69.69 1.55 18.89-.01 38.92 1.32 57.69-.42 7.2-.67 13.15-3.55 17.68-9.29 9-11.41 8.1-32.61 6.58-46.34-1.9-17.21-11.06-32.26-29.47-34.38-23.21-2.67-56.89 3.81-78.43-1.06-19.19-4.34-131.33-99.91-154.53-118.63l282.07-.3c6.3 39.81 14.83 80.15 22.61 119.7l28.97 148.14c5.38 26.99 12.6 56.9 16.96 83.5l-1371.28-.11-485.86-.01c8.71-34.88 16.939-78.28 24.405-114.07 16.628-79.69 34.751-160.22 50.591-239.96 59.857-.77 121.195-.17 181.153-.22l596.343-.5c14.48 9.22 32.109 23.78 47.886 34.31a846 846 0 0 0 116.382 63.9c115.42 52 240.74 84.47 357.75 132.7 18.04 7.43 13.27 39.1 55.91 39.95 26.79.41 53.59.63 80.39.66 8.74-.04 31.81.45 38.59-1.7 34.77-11.84 27.53-76.54.37-92.14-16.84-9.67-52.14-5.06-72.23-5.8a122.6 122.6 0 0 1-24.77-3.56c-25.81-6.4-43.29-21.3-65.57-34.34-68.89-40.32-135.82-79.69-193.97-134.92"/><path fill="#12161a" d="m195.033 1512.92 564.096-.11c84.204.1 170.849-.81 254.831.56.23 76.98 1.1 156.71-.32 233.58-26.333 1.12-59.987.18-86.762.19l-174.782-.08-557.013.87z"/><path fill="#c9d0d8" d="m426.788 1516.07 583.532.09-.19 227.89c-65.333-.72-131.934-.06-197.347-.06l-386.04.02z"/><path fill="#12161a" d="M905.986 1560.64c40.04-2.14 74.255 28.53 76.48 68.57 2.225 40.03-28.38 74.31-68.41 76.62-40.15 2.32-74.554-28.4-76.786-68.55-2.231-40.16 28.557-74.5 68.716-76.64m-182.493.02c39.858-.83 72.91 30.67 74.003 70.52 1.092 39.85-30.185 73.11-70.028 74.47-40.22 1.37-73.865-30.27-74.968-70.49-1.103-40.23 30.759-73.67 70.993-74.5m-189.034 1.06c39.087-3.24 73.476 25.65 77.029 64.71 3.554 39.06-25.056 73.68-64.087 77.54-39.474 3.91-74.572-25.1-78.166-64.6s25.692-74.37 65.224-77.65"/><path fill="#6f7c8b" d="M533.88 1564.77c37.552-3.59 70.936 23.87 74.661 61.4 3.726 37.54-23.61 71.02-61.135 74.88-37.716 3.88-71.406-23.62-75.15-61.35-3.745-37.73 23.881-71.32 61.624-74.93"/><path fill="#d2ee9a" d="m198.541 1516.06 224.782.13q.779 113.91.161 227.82-112.712-.42-225.422.42z"/><path fill="#12161a" d="m240.277 1556.01 142.627-.02c.007 48.99.521 99.16-.223 148.05-45.673 1.16-96.519.04-142.587 0-.293-49.34-.231-98.68.183-148.03"/><path fill="#d2ee9a" d="m243.719 1559.02 135.947.09.084 142.08-136.62-.17z"/><path fill="#8e9aa8" d="M867.115 346.512c24.433-1.81 66.429-.432 91.843-.415l176.942.09 589.28.092-.74 1029.711-141.94-.19-59.09.06c-22.36-20.71-46.16-48.61-66.93-71.14-12.11-13.15-21.29-25.79-34.61-38.71 13-38.98 10.11-74.43-15.56-107.67 4.41-26.17 7.47-43.18 7.73-70.43.44-45.51-8.31-122.293-40.8-155.345-34.88 19.743-74.9 61.209-99.13 93.345-5.92 7.85-19.73 30.35-24.42 34.15-2.79-.14-7.44-1.44-9.68-3.13-21.42-16.18-43.78-48.11-45.55-75.316-1.56-24.202-1.78-46.188-4.18-69.373a1243 1243 0 0 0-25.09-146.168c-30.54-129.593-93.69-297.679-206.63-377.96-19.152-13.151-39.39-23.539-61.051-31.873-5.295-2.038-28.498-8.007-30.394-9.728m-401.591.036c7.889.325 15.752.283 23.645.238 68.375-.387 136.752.034 205.123.015 6.281-.002 18.14-1.101 22.793 3.39.225 3.361-5.543 4.42-8.638 5.508-60.153 21.156-113.382 67.14-151.302 117.799-123.211 164.984-130.61 383.636-98.713 579.412 12.552 77.04 34.338 153.51 45.306 230.05 4.916 30.6 9.757 64.43 11.444 95.38-62.914-.95-128.728-.43-191.704-.17-.643-60.78.313-123.82.314-184.79l-.008-473.379c16.058 20.227 38.114 28.732 63.181 20.546a56.9 56.9 0 0 0 38.31-41.997c4.157-18.548-2.994-52.401-3.994-73.156-3.642-75.666-1.499-151.594 21.026-224.554 6.03-19.528 14.111-36.218 23.217-54.292"/><path fill="#6f7c8b" d="m1080.37 959.44 3.56.679c2.9 4.148 15.05 16.461 19.6 21.814 20.74 24.357 35.93 53.007 49.11 81.727 4.4 9.58 12.31 28.01 18.38 32.77 1.37.31 2.62.97 3.7.28 10.66-6.72 3.13-19.79.24-26.49 60.5-15.44 80.94-12.1 132.63 18 3.43 18.22 17.36 16.49 32.45 23.23 24.13 10.76 48.9 30.02 65.1 50.65a102.32 102.32 0 0 1 20.34 76.65c-7.08 54.69-60.38 104.14-101.86 136.9-19.22 15.18-43.74 29.27-68.47 23.95-47.49-10.21-125.87-42.96-164.9-70.37a171.6 171.6 0 0 1-38.73-36.77c-35.17-46.23-31.26-92.92-24.19-146.51 5.81 11.71 30.02 42.63 44.23 46.44 2.08.56 16.44-26.36 20.11-31.6 15.97-22.84 39.48-36.78 58.37-55.65 1.63-29.33-16.62-54.67-29.39-79.41-12.67-24.57-22.99-44.215-40.28-66.29"/><path fill="#12161a" d="M1341.58 1168.31c1.36-.13 2.72-.21 4.09-.23 15.83-.21 38.08 10.3 49.2 21.52-7.05 33.91-27.03 58.59-64.82 59.84-12.43.41-21.94-4.03-32.28-10.63 4.65 15.6 11.54 34.34 12.71 50.38 1.62 22.12-10.18 28.74-22.52 42.83-1.11 5.82-2.01 10.32-2.52 16.23 23.58 20.97 58.04 13.96 66.31-18.66 1.03-4.07.24-8.63 2.41-12.17 8.18 21.41-15.8 44.44-36.12 45.89-18.2 1.31-25.5-4.86-38.94-15.04-13.9 11.95-25.71 18.41-44.58 17.63-23.36-.97-42.27-19.05-39.92-43.06-.38-.16 12.36 62.19 69.18 32.98 5.86-3.82 7.91-5.41 13.08-10.13l-2.62-15.99c-43.73-34.04-27.68-49.26-43.62-94.44-.57.63-1.15 1.25-1.75 1.87-11.57 11.85-27.44 16.42-43.68 16.78-32.63.71-62.66-24.46-85.05-46.4 14.13-14.28 26.37-26.99 45.89-32.72 42.41-11.22 63.3 16.05 80.91 49.11 13.23 24.85 10.31 36.99 17.55 61.65l.57 1.93c15.81-3.81 45.81-3.24 62.57-2.27-5.97-34.64-28.92-63.41-2.66-96.44 10.29-12.94 20.63-18.05 36.61-20.46"/><path fill="#d2ee9a" d="M1115.13 1210.62c12.87-14.74 28.92-25.41 48.61-27.77-9.82 13.11-13.41 38.93-5.14 53.31 1.85 5.73 4.97 8.32 9.06 12.58-19.79-7.85-37.25-23.38-52.53-38.12"/><path fill="#f3efe6" d="M1347.57 1179.59c19.48.76 26.72 4.58 43.84 13.82-4.14 19.07-12.19 32.9-28.96 43.66a62.7 62.7 0 0 1-15.89 7.46c6.99-10.47 11.05-12.32 12.37-27.49 1.25-14.42-2.15-26.36-11.36-37.45"/><path fill="#d2ee9a" d="M1338.11 1246.11c-65.7 3.02-44.31-54.24-12.38-62.29-8.46 19.33-10.55 48.66 10.11 60.94l1.4.85c.29.17.58.33.87.5m-149.57-56.57c34.9 21.34 47.99 43.79-4.02 59.62-2.95.89-7.13.69-10.28.59l-.45-.72 3.32-1.68c19.77-10 17.03-40.25 11.43-57.81"/><path fill="url(#a)" d="M1103.93 1206.9c18.99-17.49 37.41-34.71 65.6-31.44 21.55 2.49 31.82 14.21 44.32 30.05-8.81-7.33-16.11-13.94-26.35-19.09-8.55-3.44-12.63-5.38-22.07-5.31-17.16-.26-34.99 10.23-46.93 21.91a57.4 57.4 0 0 0-6.36 7.3l-1.12 2.9z"/><path fill="#8e9aa8" d="M1313.07 1183.79c18.37-17.6 44.35-14.5 64.77-3.17 4.49 2.49 9.25 4.89 12.74 8.72l-1 .43c-16.68-9.47-34.58-16.52-54.11-11.48-2.95.69-5.43 1.21-8.31 2.23-3.61 1.49-7.5 2.99-10.99 4.69-3.71 2.47-9.8 7.64-13.5 10.62 3.61-4.78 5.82-8.06 10.4-12.04"/><path fill="url(#b)" d="M1221.89 1223.68c2.96 2.03 5.02 6.98 6.69 10.26-10.5 9.38-16.71 12.34-30.2 15.66-2.31.2-3.82.17-6.11.16 1.22-.95 6.32-3.36 7.71-3.96 13.86-5.87 15.85-8.51 21.91-22.12"/><path fill="#d2ee9a" d="M1112.14 1210.32a198 198 0 0 0 18.86 17.8c4.27 3.59 9.98 7.49 13.33 11.67-11.07-6.1-23.74-17.93-33.31-26.57z"/><path fill="#f3efe6" d="M1261.5 1289.5c6.76.13 27.54-1.99 31.74.95-9.54 3.33-22.41 2.93-31.74-.95"/><path fill="#8e9aa8" d="M702.665 977.794c5.348 6.547 23.452 75.166 27.387 87.956 24.835 80.71 47.873 166.19 90.363 239.73 14.621 25.31 36.091 51.55 54.701 73.47l-94.616-.14H674.407c-5.597-36.88-24.403-35.32-55.317-34.81-11.776-21.01-11.258-59.01-11.128-83.11.238-43.91.949-104.62 19.366-144.82 23.096-50.42 59.036-83.02 75.337-138.276"/><path fill="#3a434d" d="M1289.32 1400.3c50.07-28.91 108.42-77.83 130.81-132.21 12.74 12.56 23.99 26.91 35.99 40.22 22.61 25.09 45.32 50.71 69.48 74.29 28.8 27.94 58.31 55.14 88.48 81.59 11.51 10.08 34.08 27.39 43.92 37.18-3.77 18.89-20.29 47.23-37.02 57.83-10.04 6.36-17.17 8.86-28.85 10.88-7.64-2.68-20.73-10.25-28.12-14.29l-55.12-30.54c-54.8-29.7-110.62-57.39-164.57-88.74-17.45-10.14-34.26-22.46-49.95-35.11-1.13-.91-.52-.52-2.05-1.16z"/><path fill="#6f7c8b" d="m489.335 1191.92 117.822.16c-2.159 37.07-9.193 125.57 10.36 155.1 31.19.97 50.389-6.4 54.002 37.57 2.338 28.45-.149 40.17-32.212 34.45.39-5.74 1.793-33.29-.455-37.5l-1.515.92-.422 3.13c.043 8.31.666 24.77-1.24 32.01-5.292 4.36-42.475 8.47-42.381-4.02.087-11.53.884-21.43-1.216-33.25l-1.038-.35c-1.22 6.15-.99 13.93-.82 20.23.432 6 .727 19.45-7.719 20.65-20.133 2.84-55.361 2.13-61.929-22.36-2.105-7.84-2.357-21.23-2.96-29.74a710 710 0 0 0-3.498-35.46 1416 1416 0 0 0-24.779-141.54"/><path fill="#8e9aa8" d="M1053.55 946.814c26.79 3.144 49.41 51.282 61.36 73.686 10.76 20.19 35.11 57.69 32.44 82.36-.18 1.67-28.81 25.68-33.41 30.07a216.2 216.2 0 0 0-30.28 35.12c-4.92 8.19-7.91 14.03-12.03 22.68-70.3-48.96-73.987-148.98-39.76-220.909 4.81-10.102 11.25-18.394 21.68-23.007"/><path fill="#6f7c8b" d="M1477.06 1581.83c9.14.95 47.62 30.9 66.09 34.88 24.58 6.53 54.74 5.72 80.27 4.68 48.87-2 57.21 95.36 8.91 92.49-.57-1.75 4.57-17.35 4.92-22.43.45-6.46 1.82-31.75-7.25-32.28-2.87 3.22 1.63 38.62-4.53 55.08l-16.54-.22-36.78-.02c2.12-10.53 6.42-48.82-3.83-54.1-2.91 3.03-2.66 11.8-2.31 15.98 1.13 13.39.03 24.86-2.05 38.13-22.39-.22-61.21 5.65-73.32-15.69-17.14-30.19-43.12-33.38-75.22-44.28 8.35-36.1 28.76-56.11 61.64-72.22m183.92-78.31c3.37 1.63 12.8 9.85 16.64 12.54 18.08 12.65 55.72 47.37 74.44 54.69 28.1 8.16 74.28-7.47 97.8 10.18 13.72 10.29 15.33 60.34 1.22 71.5-7.27 5.75-20.7 4.67-30.22 4.54 2.72-9.95 7.32-39.56-2.51-45.8l-1.61.65c-3.06 5.18-1.41 35.46-1.81 45.26-7.59-.33-15.53-.36-23.15-.51-7.82-.1-15.93.17-23.77.34 1.6-13.12 1.08-24.31-2.97-37.02-1.2-3.77-6.72-10.31-11.15-8.7-2.38 6.43 5.86 20.77 6.56 28.19.56 5.98.43 11.59.39 17.54-14.06.18-38.89 1.9-51.83-2.7-13.01-5.34-19.44-22.79-30.33-30.18-26.67-18.1-55.74-36.23-83.92-51.68 37.65-8.14 54.04-33.83 66.22-68.84"/><path fill="#8e9aa8" d="M1374.05 938.601c9.08 5.143 20.89 37.376 23.68 47.331 15.12 53.758 18.04 114.838 6.04 169.498-9.03-9.62-17.48-16.87-27.4-25.46-11.59-9.1-23.99-15.83-37.58-21.48-7.6-3.17-16.37-5.89-23.21-10.47-2.68-1.79-3.75-3.85-4.28-6.98-3.74-22.1 31.89-100.376 43.64-122.228 5.69-10.587 12.19-20.413 19.11-30.211"/><path fill="#56626f" d="M564.81 270.318c57.943-7.646 109.51 32.4 145.354 73.551-30.292-1.51-66.661-.698-97.401-.769-44.927-.036-101.885-1.469-145.737.705a229 229 0 0 1 8.901-13.499c22.825-32.696 49.093-52.979 88.883-59.988"/><path fill="#3a434d" d="m1368.02 938.972.72 1.344c-3.09 4.929-9.44 14.888-12.13 19.6-17.75 31.104-43.56 91.544-48.3 125.954-8.92-5.84-24.51-14.97-34.06-18.45-7.22-3.48-12.91-4.98-20.62-6.78 27.15-40.08 48.46-69.251 86.56-100.624 8.72-7.176 18.03-15.517 27.83-21.044"/><path fill="#56626f" d="m1289.32 1400.3 3-.06c3.91 11.35 46.8 35.77 58 42.44-21.77-.76-43.72-.21-65.55-.76-9.48-8.14-25.49-29.34-35.1-40.25 16.63 2.82 23.05 2.35 39.65-1.37"/><path fill="#3a434d" d="m1080.37 959.44-3.48-3.814c-3.43-3.728-7.82-4.725-9.94-8.772l.34 1.367 1.71-1.489c42.3 14.709 77.94 70.558 98.02 109.148 3.78 7.26 16.68 32.53 5.99 37.9-3.01-1.81-5.9-7.3-7.51-10.51-19.1-38.03-45.54-98.905-80.58-124.486l-.9.624-.09.711z"/><path fill="#8e9aa8" d="m324.106 347.174 21.068.596c-5.874 17.182-11.117 35.937-15.855 53.471l-4.877 20.694c-.774-24.043-.335-50.596-.336-74.761"/><path fill="#6f7c8b" d="M1755.61 1613.66c11.91 6.44 11.64 32.05 9.27 43.81-3.2-2.54-1.1-8.96-.88-13.02.62-11.44-7.42-20.08-8.39-30.79m-187.49 49.06c6.38 5.1 3.83 42.45.44 50.53-2.13-2.02-.49-6.9.06-10.2 2.27-13.48-.13-26.66-.5-40.33m62.28-.34c8.4 5.71 3.7 39.05-.09 47.81l-.79.18c4.18-14.24 1.9-33.07.88-47.99m187.3-47.84c7.52 5.43 1.59 34.88-.19 42.83-2.36-2.1.02-8.07.65-11.32 1.92-9.98-2.31-21.88-.46-31.51"/></svg>