<svg xmlns="http://www.w3.org/2000/svg" viewBox="-23 50 2093 2093"><path fill="#12161a" d="M1136.26 360.69c4.18-13.246 9.02-25.416 16.04-37.429 17.71-30.295 100.34-139.969 125.77-153.748 9.07-4.918 20.49-6.903 30.48-3.711 7.69 2.457 12.98 8.17 16.42 15.306 4.85 10.07 6.02 21.306 5.61 32.347-1.6 42.514-12.85 84.637-18.64 126.703-4.84 35.163-4.34 93.893-15.91 124.802-6.83 18.256-24.58 21.976-35.14 36.337-7.21 9.808-10.5 23.748-16.21 34.654a215.9 215.9 0 0 1-42.57 57.025c-6 5.713-12.38 10.626-18.42 16.434-9.23 48.861-5.39 129.659 14.36 174.864 5.59 12.806 12.65 26.241 18.52 39.018a305.3 305.3 0 0 1 17.94 52.009c11.5 47.616 10.44 98.713 9.94 147.349-.14 13.66-2.09 32.8-.98 45.97 6.18 73.24 28.07 144.46 61.8 209.65 16.22 31.41 34.23 61.65 45.38 95.27 49.34 146.66 11.11 359.11-113.3 458.7l498.43-.48 142.44-.05c23.67-.05 51.18-.84 74.33-.14-.61 3.58.78 3.75-1.32 6.16-.88-.94-1.77-1.88-2.65-2.83-31.59.37-87.32.4-115.74.68-230.95 1.6-461.9 1.29-692.84-.94-10.1-.11-77.98 2.66-81.28.75-1.74-1.01-2.4-1.31-4.41-1.33-23.29-.26-46.58 1.19-69.839 1.43-37.661.33-75.325.03-112.976-.9-15.702-.24-32.996.4-48.542-.61l-.841-1.77.637-1.2c-3.589-1.69-27.153-5.76-33.383-7.36-12.291-3.16-25.7-6.28-37.988-9.98-77.518-23.34-174.325-60.98-235.19-115.88a270.4 270.4 0 0 1-88.223-186.49c-2.187-9.75-1.3-47.94.63-58.03 14.672-165.27 188.4-275.09 334.943-178.21 6.693-16.45 15.373-32.71 21.539-49.03 21.464-56.8 41.71-117.81 38.325-179.13-4.174-75.607-6.189-153.781 26.615-223.954 6.432-13.666 13.574-26.121 19.606-39.874 22.447-54.047 21.894-119.766 10.952-176.398-37.971-38.849-53.115-53.717-70.824-107.932-38.662-14.915-46.9-49.377-47.96-87.226-1.775-63.353-20.103-123.117-25.369-185.798-4.51-65.688 37.058-80.187 81.542-33.48 19.338 20.303 33.625 43.959 50.506 65.917 26.768 34.817 49.926 59.415 67.217 100.981 19.221-3.944 41.21-8.63 60.854-10.192 45.069-3.585 95.939.425 139.719 11.746"/><path fill="#3a434d" d="m428.595 1453.27 1.064 2.02c2.606-5.44 3.893-21.42 5.209-27.89 34.521-169.6 223.836-248.86 356.895-127.17 18.486 16.91 40.543 40.57 28.076 68.28-9.33 19.01-35.606 27.41-54.026 17.01-16.601-9.01-22.039-27.58-33.195-40.54-12.35-13.8-35.474-23.2-53.067-27.29-20.484-4.77-49.974-4.78-70.133.8-24.067 6.66-53.278 26.79-69.24 45.71-22.251 26.36-38.858 66.42-37.638 101.3.028.81.853 1.81 1.223 2.37-.133 12.41.682 31.91.003 43.55l-.988.16c-1.297 3.8-.066 10.42.361 14.51 12.742 121.77 137.986 170.29 239.067 199.79 24.602 40.55 54.012 72.8 97.708 93.15 10.724 5 19.995 7.92 30.936 12.03-35.521-.03-54.951-3.59-89.233-12.44-84.448-21.82-176.321-55.16-246.146-108.59a263.24 263.24 0 0 1-99.589-156.48c-3.407-15.63-4.522-29.64-6.629-45.36l-.834-.99.171-.78-.625 4.88c-2.187-9.75-1.3-47.94.63-58.03"/><path fill="#c9d0d8" d="M503.763 1467.87c2.096-31.48 8.095-58.32 25.609-85.11 27.768-42.46 74.081-70.5 125.697-66.22 26.807 2.23 54.38 10.4 74.44 29.17-43.877 93.64-42.176 235.9-7.533 332.46 5.589 15.58 12.287 30.17 19.808 44.88-109.983-33.3-228.552-78.95-238.018-211.63.679-11.64-.136-31.14-.003-43.55"/><path fill="#8e9aa8" d="M884.27 610.365c3.138 1.35 13.363 9.489 17.553 11.934 7.895 5.261 24.319 10.092 31.014 16.072 31.342 27.996 55.412 50.681 98.923 59.145-1.63 17.093-.89 47.925-.93 65.812l-.12 119.485c.05 16.533 1.79 46.939-1.39 62.364-.99 4.811-14.41 29.581-17.61 36.159a6179 6179 0 0 1-66.222 132.594l-19.804 39.05c-5.174 10.14-10.701 17.45-11.123 29.08-1.799 49.57 7.149 98.46 16.304 146.94 13.753 72.84 30.025 145.18 45.01 217.77 10.928 53.93 25.385 118.37 27.275 173.03.6 12.21.51 20.93-1.56 32.99-22.12-6.88-40.137-5.87-62.366-1.23-13.099-24.46-28.952-70.8-37.908-97.65a1696 1696 0 0 1-78.85-341.64c-2.488-19.39-5.808-43.39-6.781-62.65-.58-11.48 6.326-36.34 8.079-49.66 3.799-29.07 5.987-59.43 5.338-88.7-2.13-96.02-18.717-195.406 22.964-286.081 6.675-14.522 16.297-30.623 22.046-45.322 19.99-51.116 19.345-115.999 10.158-169.492m294.69 2.746c.44 1.04-2.95 37.17-3.05 43.151-.45 26.147 1.13 47.1 4.14 72.773 6.75 57.378 39.26 91.655 51.58 147.062 17.96 80.756 7.48 166.333 6.63 248.303-.29 28.34 2.6 55.63 6.88 83.54 1.94 12.63 8.35 32.51 7.65 44.27-1.39 23.42-5.35 48.07-8.28 71.43-3.34 26.54-6.51 53.74-11.3 79.99-15.85 86.73-40.23 173.77-67.41 257.57-7.77 23.95-23.2 69.38-35.77 90.29-27-5.78-37.53-5.26-63.61 1.63-.76-10.88-1.39-19.4-1.04-30.37 4.41-76 23.01-146.72 39.5-220.77a2918 2918 0 0 0 33.7-171.91c8.43-48.74 17.21-98.41 13.98-148.05-.16-6.61-2.14-12.39-5.11-18.3-10.19-20.25-20.66-40.4-30.98-60.59l-55.89-110.092c-3.02-5.802-25.2-46.682-25.39-50.884-2.97-65.611-.35-132.021-1.09-197.81-.17-15.241.1-31.053.92-46.271 28.35-5.398 60.34-22.606 81.43-42.051 5.56-3.92 13.14-15.135 18.87-18.214 15.62-8.406 28.97-14.165 43.64-24.697"/><path fill="#8e9aa8" d="M1291.79 167.188c9.91-.814 28.92 3.063 29.73 15.204-6.6-2.038-12.74-4.385-19.63-2.645-34.21 8.643-82.49 94.612-99.77 124.663-8.11 14.116-28.24 46.201-23.56 62.38 4.88 16.859 30.09 49.989 40.34 67.275 10.16 17.144 15.18 36.985 25.55 53.672 3.47 5.589 6.95 9.151 12.72 12.296-21.38 51.658-44.57 89.99-93.81 119.487-9 5.388-20.98 8.618-29.18 14.544-7.12 5.141-14.49 14.737-21.55 20.366-17.97 16.94-58.63 41.589-83.82 38.91-20.61-2.193-49.617-19.297-65.176-32.31-8.695-7.272-17.734-17.291-26.881-24.347-9.124-6.814-20.775-10.501-30.582-16.238-44.618-26.074-79.37-73.712-93.631-122.617l.829-.483c12.024-6.861 14.627-16.681 20.001-29.083a215.5 215.5 0 0 1 24.523-44.17c23.236-32.8 52.015-56.063 25.088-98.96-27.696-44.124-55.181-91.171-91.211-128.981-14.257-14.962-29.521-20.117-48.141-9.894 3.82-5.585 8.977-13.484 15.111-16.398 16.87-8.011 39.783 7.198 51.425 18.612 22.774 22.456 39.65 50.074 58.943 75.466 15.78 20.767 32.861 40.816 47.328 62.513 7.483 11.221 13.126 23.425 18.821 35.607 71.513-16.41 130.623-16.055 202.263 1.721 4.34-10.09 6.83-19.757 12.25-30.078 13.53-25.806 32.41-48.566 50.07-71.726 21.42-28.074 43.03-58.091 69.06-82.121 7.58-6.995 13.38-9.508 22.89-12.665"/><path fill="#12161a" d="M1123.17 433.146c22.49-1.65 47.41 4.287 63.5 20.886-11.06 30.919-24.69 55.96-62.36 58.438-17.04 1.121-32.31-4.779-48.02-10.699 8.41 57.14 61.76 43.367 56.1 109.099-4.72 54.879-73.43 53.273-99.42 20.44-28.24 35.965-98.847 32.035-99.958-22.923-1.244-61.541 53.617-49.239 60.15-106.794-54.994 19.086-88.608 15.589-108.61-45.718 17.816-15.258 35.499-21.853 58.551-21.939 31.81 3.997 49.409 34.721 52.593 64.328 3.919 36.435-26.637 48.645-47.446 70.591-12.474 13.771-11.483 25.798-11.79 42.132-.855 45.337 65.72 50.652 89.77 23.212 7.11-8.114 5.62-16.268 4.3-26.611-9.85-9.126-58.402-47.767-18.88-52.818 8.52-.944 17.23-.839 25.75-.997 64.09-1.191 17.15 34.274-2.43 54.817.07 6.737.9 14.075 1.53 20.837 14.99 18.588 39.32 24.522 62.06 19.247 24.55-5.696 29.5-23.868 30.91-45.234 3.18-48.495-43.2-49.707-54.81-89.282-4.69-15.988 2.04-38.525 10.55-52.485 9.89-15.238 20-24.24 37.96-28.527"/><path fill="#d2ee9a" d="M1139.45 437.93c13.32 1.492 29.4 8.725 40.57 16.043-4.77 23.006-15.9 42.42-39.04 50.992-21.7 8.042-43.7-.702-63.33-10.145.78-3.889 1.58-7.773 2.41-11.652a85.85 85.85 0 0 1 19.55-33.755l-.7 2.608c-11.06 40.499 25.6 62.542 48.32 37.722a32.57 32.57 0 0 0 8.54-24.141c-.82-12.692-7.35-20.012-16.32-27.672m-206.624.377.524.877c-3.679 2.56-8.177 5.371-10.678 9.174-9.067 13.861-6.31 39.565 9.082 47.95 22.244 12.116 43.89-7.868 42.495-30.825-.292-4.809-2.031-9.5-3.49-14.027 10.591 13.088 13.747 20.436 19.685 36.293.638 1.907.952 3.83 1.361 5.807-1.557 3.43-2.997 3.246-6.525 4.769-48.131 20.774-76.88 8.821-95.635-40.872 15.384-9.059 25.484-15.557 43.181-19.146"/><path fill="#3a434d" d="M1032.23 946.603c7.76 7.913 49.31 94.077 57.39 110.067l40.5 79.01c3.21 6.31 18.08 34.54 18.7 39.73 3.64 30.46-.03 75.16-4.78 104.99-8.72 54.74-18.23 109.56-29.07 163.62-9.5 47.33-21.94 94.52-31.52 141.6-10.35 50.85-25.31 117.61-19.24 169.01-14.54 7.25-19.3 11.87-29.27 24.54-9.69-14.66-15-18.7-30.89-25.53 8.12-43.31-11.122-136.95-20.038-181.54a8760 8760 0 0 0-27.204-129.36 3794 3794 0 0 1-28.999-145.64c-6.031-33.96-14.035-86.8-9.64-120.67 1.105-8.51 36.265-73.88 41.798-84.74a9613 9613 0 0 0 72.263-145.087"/><path fill="#6f7c8b" d="M1242.45 1092.24c1.13 2.66 5.7 31.95 6.99 38a581 581 0 0 0 21.79 77.52c15.4 42.67 36.53 80.46 57.3 120.28 35.09 67.28 43.87 144.28 38.8 219.49-7.31 108.51-49.1 210.25-131.62 282.98-5.68 3.28-55.97 1.51-65.67 1.46 22.6-31.42-7.14-67.16-36.49-79.72 21.29-44.04 36.98-92.9 50.79-139.59 27.66-94.36 52.55-189.81 62.61-287.88 3.42-33.36 13.56-65.68 5.32-98.8-10.94-44-12.21-88.69-9.82-133.74m-511.802 256.19c8.288 4.74 15.7 34.41 39.487 42.3a43.1 43.1 0 0 0 33.673-2.61c12.627-6.49 17.345-14.76 21.472-27.38 7.704 32.7 12.99 71.8 20.608 106.43a1891 1891 0 0 0 57.237 201.33c8.169 23.75 21.493 62.92 33.55 84.33-21.42 5.94-34.515 18.45-43.909 38.23-5.515 16.03-5.71 24.39.079 40.42-13.88-1.15-23.45-3.81-36.287-8.93-59.581-23.79-100.16-67.1-124.477-126.47-43.777-106.9-44.704-240.77-1.433-347.65"/><path fill="#c9d0d8" d="M757.542 183.137c10.318.11 20.786 4.168 28.356 11.283 33.426 31.417 55.56 73.732 81.57 111.123 7.973 11.461 15.564 24.311 20.42 37.355 11.846 30.82-14.588 55.189-31.27 77.744a195.8 195.8 0 0 0-20.56 34.126c-6.189 13.989-15.34 49.396-36.266 36.641-33.982-20.713-33.681-60.904-36.16-95.94a723 723 0 0 0-4.792-47.454c-5.581-42.056-17.234-83.333-19.507-125.769-.679-12.689-.285-22.497 6.343-33.796 5.148-3.154 6.086-3.644 11.866-5.313m547.078-.919c21.5-1.301 24.11 13.238 22.96 31.653-2.65 42.623-13.35 84.518-18.72 126.786-4.5 35.397-5.29 71.529-11 106.795-4.54 28.302-18.33 34.808-40.43 50.185-12.97-10.924-14.27-17.315-20.23-32.56-15.24-35.842-38.53-64.591-56-98.57-4.52-8.787 12.24-42.101 17.64-50.501 22.6-35.092 65.52-122.308 105.78-133.788"/><path fill="#6f7c8b" d="M824.811 1099.06c3.706 16.4-.347 86.95-4.822 104.69-12.778 50.64-4.136 79 2.546 130.04-6.591-12.48-9.784-16.25-19.346-26.9-12.349-12.03-23.313-20.69-37.288-30.55 6.467-15.38 14.156-30.44 20.595-45.78 8.424-20.08 16.167-42.02 22.348-62.91a594 594 0 0 0 10.281-40.67c1.841-8.77 3.13-18.36 5.404-26.89z"/><path fill="#8e9aa8" d="M958 1751.35c14.942-1.83 26.548.58 40.989 3.47-.621 25.25.391 51.06-.609 76.07l-15.522.4c-14.24.03-28.48-.08-42.717-.32-.581-24.96-.226-51.22-.238-76.27 6.274-1.46 11.751-2.34 18.097-3.35m139.62-.93c10.9.24 17.97 1.49 28.64 3.57-1.06 23.68-.42 52.88-.21 76.82l-28.12.4-29.7-.02c-.28-25.06-.42-50.12-.41-75.18 11.14-3.05 18.34-4.68 29.8-5.59m32.2 4.15c1.28.4 2.55.82 3.81 1.28 29.78 10.95 48.81 41.12 36.45 72.65-5.62 5-31.62 2.72-41.06 2.53-.06-16.75-1.21-61.71.8-76.46m-194.478 1.37.541.19c.343.43.686.86 1.029 1.3-.633 22.21-.63 52.21.271 73.52-13.849-.31-27.703-.38-41.555-.2-.452-.67-.775-1.07-1.065-1.89-9.385-26.4 4.401-52.81 27.212-66.54 4.128-2.49 9.002-4.45 13.567-6.38m66.848.21c27.27 9.32 49.13 43.06 36.82 71.46-5.99 5.43-27.68 3.52-37.06 3.42z"/><path fill="#8e9aa8" d="m1063.26 1757.78 1.59.74c-.17 24.06-1.71 48.68.2 72.68-5.05-.2-19.31-.52-23.41-1.69l.55-1.14c9.01-18.14 3.61-31.18-5.44-47.39 9.34-11.57 13.99-15.34 26.51-23.2"/><path fill="#1b2127" d="M767.641 1832.13c12.713-.26 42.493-1.08 54.471.08l.841 1.77c15.546 1.01 32.84.37 48.542.61 37.651.93 75.315 1.23 112.976.9 23.259-.24 46.549-1.69 69.839-1.43 2.01.02 2.67.32 4.41 1.33 3.3 1.91 71.18-.86 81.28-.75 230.94 2.23 461.89 2.54 692.84.94 28.42-.28 84.15-.31 115.74-.68.88.95 1.77 1.89 2.65 2.83 2.1-2.41.71-2.58 1.32-6.16 1.07 10.49.4 31.88.37 43.06l-.03 76.46-73.68.38c-7.89.06-33.31.74-39.98-.74-1.52 28.75-.28 67.57-.3 97.27H207.751c-.921-30.67.115-65.97.291-96.98l-19.512-.17c-29.212 1.14-64.932.17-94.649.17l.042-72.52c-.006-13.15.382-30.44-.585-43.19l1.18-2.85c4.174-1.64 139.884-.63 154.704-.63z"/><path fill="#56626f" d="M188.53 1950.85c-15.491-2.17-31.919-.86-47.554-1.11-5.344-.08-12.865.63-17.892-.21 17.841-.45 35.613.02 53.46-.28 137.254-1.72 274.522-2.16 411.784-1.31l798.662-.01 306.96.08c15.12 0 139.12-.7 145.39 1.75l-.11.97c-1.52 28.75-.28 67.57-.3 97.27H207.751c-.921-30.67.115-65.97.291-96.98z"/><path fill="#12161a" d="M188.53 1950.85c-15.491-2.17-31.919-.86-47.554-1.11-5.344-.08-12.865.63-17.892-.21 17.841-.45 35.613.02 53.46-.28 137.254-1.72 274.522-2.16 411.784-1.31l798.662-.01 306.96.08c15.12 0 139.12-.7 145.39 1.75l-.11.97c-1.52 28.75-.28 67.57-.3 97.27h-2.63c-1.35-28.66-.13-67.27.08-96.56-114.51-1.03-229.03-1.36-343.54-.99l-464.45.1-533.388-.04-284.549.51c-.329 32.33-.451 64.65-.367 96.98h-2.335c-.921-30.67.115-65.97.291-96.98zm-95.192-115.54 1.18-2.85c4.174-1.64 139.884-.63 154.704-.63l518.419.3-1.585 1.3c-.629-.11-36.39 1.53-36.71 1.6l12.294.1c-19.369 1.28-41.774.78-61.35.77l-94.913-.06-324.752-.29-109.709-.26c-17.508-.05-40.573-.79-57.578.02"/></svg>