<svg xmlns="http://www.w3.org/2000/svg" viewBox="-102 23 2253 2253"><defs><linearGradient id="a" x1="1141.84" x2="1142.35" y1="1189.04" y2="1180.85" gradientUnits="userSpaceOnUse"><stop class="stop0" offset="0" stop-color="#12161a"/><stop class="stop1" offset="1" stop-color="#12161a"/></linearGradient></defs><path fill="#3a434d" d="m0 1780.02 2048-.02v62.27l-.85-.55c-17.81 1.44-51.4.33-70.66.33l-137.94-.05-439.14.01L0 1842.1z"/><path fill="#12161a" d="m0 1780.02 2048-.02v2.69c-21.74 1.48-53.83.28-76.65.29l-148.12.04-458.11-.19-1365.12.1zm0 59.04 1533.6-.06 379.81.02 93.59.06c6.93 0 34.17-.53 38.68.43l1.47 2.21c-17.81 1.44-51.4.33-70.66.33l-137.94-.05-439.14.01L0 1842.1z"/><path fill="#6f7c8b" d="m1312.79 1604.04 441.17-.25c-.05 5.95-.18 9.26.79 15.23-5.5 6.8-142.24 1.9-164.42 32.86-2.3 7.33-1.54 62.15-1.19 72.65 18.76 21.44 90.77 26.62 119.39 28.56 48.36 3.26 231.24 7.54 265.86-21.65 4.14-3.49 4.72-6.82 5.03-12.11 1.06-18.14-.33-36.81-.47-55.01 17.79 17.7 51.16 52.64 69.05 67.34V1780l-2048 .02v-5.66c43.86-44.84 93.327-86.67 138.327-130.5 12.65-12.33 28.527-28.23 42.354-38.94l347.117.47c4.588 11.12 8.838 21.82 14.306 32.55-22.408 11.33-28.916 36.29-9.873 54.11 6.367 1.8 12.749 2.09 19.346 2.67.945 7.11 5.421 25.24 14.757 26 37.716 3.07 76.629.96 114.544 1.01 16.428.02 18.759-9.03 22.466-22.82l33.779-.06c1.855 12.46 5.76 21.98 20.257 21.96 39.783-.11 80.287 1.68 119.939-.87 13.016-.84 18.682-18.51 18.956-29.48 8.079-.04 13.412.57 20.589-3.45a26.25 26.25 0 0 0 12.698-16.18c5.005-18.1-6.206-31.47-23.394-35.69 3.809-11.11 7.93-20.39 12.623-31.14l139.229.05.01 126.65c31.44 32.64 222.95 30.72 254.03-.91z"/><path fill="#1b2127" d="M1087.6 1214.11c13.34-.58 29.5-.13 43.17-.12l94.62-.07c18.49-.03 39.47.39 57.78-.59.08 6.19.32 11.27.8 17.44 29.51 42 25.95 61.87 25.98 111.35l.04 79.8-.5 306.85c-11.99 9.19-18.99 10.85-33.7 14.23-42.34 9.62-177.38 15.56-212.67-11.67-3.11-14.31-2.11-45.24-2.11-61.07l.74-123.51-.64-169.09c-.06-27.49-1.04-58.62 1.19-85.84 1.9-23.3 13.28-40.47 25.12-59.52.01-6.06.08-12.13.18-18.19"/><path fill="#6f7c8b" d="M869.59 886.507c10.401 34.107 19.456 89.398 25.57 125.183-6.756 5.24-16.867 16.11-19.699 18.19-6.674 5.65-18.006 24.66-22.997 33-19.412 32.47-55.304 96.11-58.325 133.05-3.009 36.79-3.82 79.51-5.826 116.74l-11.493 206.49a8142 8142 0 0 1-6.811 132.45c-24.99 5.04-32.752 19.98-33.309 44.38l-32.606-.02c-1.542-19.46-6.03-38.73-28.316-43.46l-18.55-335.75q-2.24-43.95-4.966-87.87c-.703-11.42-1.881-42.18-5.101-51.32-13.342-37.89-37.037-76.01-56.059-111.61-3.689-6.9-15.271-22.75-16.858-28.44l-1.865 1.75c-1.905-2.17-9.013-13.13-11.033-16.11-.424-.65-.86-1.3-1.31-1.93-3.802-5.3-5.62-5.11-12.133-6.24 8.09-40.021 17.467-86.5 29.213-125.807 12.84 20.059 24.955 31.82 41.316 48.847-3.945.061-5.923.218-9.825.799 2.53 1.006 7.641.706 10.644.746 18.583 15.318 26.466 21.496 49.252 28.167 19.755 20.952 36.41 25.816 65.043 23.057 21.447-2.067 32.212-7.655 46.007-24.411 21.769-4.688 30.137-12.596 45.359-28.385l14.19 2.808-1.033-1.368 3.66 1.707-3.626-.721 1.914-.333-12.884-4.753 12.089-13.297c3.597.643 7.031 1.578 10.576.878-2.559-2.208-5.409-2.383-8.915-3.22 5.467-5.466 11.293-12.152 16.562-17.919l5.523 1.549 1.781-1.056.884.735c-1.285.602-.479.376-2.502.216l2.479-.042c-.439-1.955-4.898-2.052-5.902-5.12z"/><path fill="#3a434d" d="M561.346 1023.16c6.083 1.57 8.837 9.26 12.898 14.36l-1.865 1.75c-1.905-2.17-9.013-13.13-11.033-16.11"/><path fill="#8e9aa8" d="M529.316 758.146c-33.965-8.985-34.053-59.283-36.032-87.243a1885 1885 0 0 0-3.981-45.904 6815 6815 0 0 0-7.07-69.737c-1.77-17.061-4.054-34.174-3.922-51.352.108-14.121 1.681-29.657 12.608-39.879 5.011-4.687 11.105-7.161 18-6.811 41.757 2.12 132.207 141.617 162.696 174.524 12.876 13.897 32.456 19.63 50.922 20.105 14.983.385 33.976-2.266 46.529-11.16 14.591-10.338 34.076-39.849 45.461-54.554 25.995-33.578 58.632-77.413 89.124-106.199 11.39-10.753 27.522-24.244 44.178-23.352 6.197.332 11.551 2.787 15.692 7.433 15.656 17.565 12.244 52.416 11.095 74.284-1.706 32.469-6.912 64.391-10.084 96.7-2.355 23.989-1.454 64.624-9.22 86.01-5.306 14.61-14.901 25.176-26.28 35.41.001 36.23-16.621 77.405-40.037 104.807-9.925 11.616-21.4 22.264-30.839 34.285l-1.063 1.367c-25.403-.625-49.851 4.648-72.292 16.793 8.521-1.257 18.003-4.851 26.437-7.406 15.514-4.699 27.058-6 43.043-6.294-4.208 5.66-11.842 13.695-16.728 19.155-9.432-.589-43.13-3.255-48.556 3.908 4.25.795 12.811-.955 18.207-1.062 9.481-.187 18.127.069 27.579.387l-10.814 11.894c-9.985-2.563-19.963-3.088-30.181-2.332l.114.799c8.465 2.007 19.259 2.687 28.164 3.787-14.421 14.115-25.586 25.222-46.874 25.988-11.838.426-29.332-.284-38.622-8.774-3.918-3.58-3.322-11.906-3.426-17.1 37.167-22.818 30.589-40.439 29.629-76.679a306 306 0 0 1 2.144-46.673c5.831 1.861 13.413 6.214 18.787 9.111 24.196 13.043 51.587 10.52 71.193-9.675 7.104-7.317 23.252-27.539 21.893-38.323-2.911-23.091-39.23-37.71-60.16-34.962-61.942 7.966-61.767 103.576-55.487 149.574-2.886-.448-5.755-1.001-8.629-1.527q-19.255.303-38.513.084c-5.903.112-12.089.116-17.957.513 1.674-12.74 1.341-26.649 1.133-39.462-.501-31.035.339-61.01-19.428-87.012-29.594-38.928-82.216-24.306-103.735 13.843 7.696 22.047 19.616 40.173 41.258 50.244 29.457 13.707 51.588 2.624 76.404-12.803 2.258 14.335 2.283 28.996 2.304 43.773.027 18.98-3.087 29.294 2.481 47.962 5.215 17.484 33.219 31.709 22.681 46.355-5.275 7.332-23.61 12.669-33.062 13.309-26.876 1.819-44.592-11.297-63.785-27.596 7.619-1.586 40.898-5.338 44.74-7.199-4.876-4.165-39.148 3.47-46.83 5.074L609.96 924.31c12.058-.993 24.107-2.26 36.186-2.914 5.623-.305 15.822 1.283 19.996-.498-2.116-3.405-7.665-2.917-11.237-2.769-7.693 1.172-39.259 3.664-46.317 3.769-3.5-3.154-8.052-8.436-11.346-12.033 9.968.636 19.047 1.227 28.965 2.42 7.534.907 18.16 3.615 25.093 3.37-19.51-8.674-35.026-6.855-55.657-8.435-3.778-3.687-7.205-7.638-10.728-11.57 22.657 1.154 45.231 1.348 66.233 10.716 4.559 2.034 9.238 3.697 13.986 5.237l.87-.699c-1.711-3.854-6.68-5.244-10.704-6.919-10.83-4.509-19.807-6.869-31.117-8.692-9.078-1.463-34.678-.8-41.174-4.205l1.032-2.489-.748-.711-1.777 1.677c-19.127-25.821-51.398-71.644-57.974-102.866-5.506-26.139 40.095-58.602 58.579-72.24l38.25-27.97c8.804-6.425 18.821-12.651 25.572-21.341 4.948-6.369 6.955-13.258 5.796-21.277-4.682-32.418-93.923-145.854-122.099-166.456-6.813-4.982-16.162-10.52-24.909-8.832-5.271 1.017-9.326 4.687-12.024 9.19-3.722 6.213-4.293 14.261-4.28 21.359.029 14.866 2.125 29.968 3.707 44.735l6.846 64.31 6.606 65.149c1.833 18.019 2.925 58.539 18.991 71.421 3.972 3.184 11.042.701 15.737-.643z"/><path fill="#12161a" d="M940.673 470.083c23.615-.846 24.892 26.273 23.996 44.376-3.132 63.356-12.474 127.43-20.121 190.423-2.235 18.417-10.599 36.64-28.226 44.451a4506 4506 0 0 1-49.099-37.179c-15.7-12.117-57.086-38.974-63.408-55.732-3.771-11.429 2.6-30.306 8.606-39.994 23.08-37.227 86.782-134.161 128.252-146.345"/><path fill="#c9d0d8" d="M940.695 473.156c20.757-1.599 20.997 24.113 21.11 38.997.186 24.519-3.232 49.875-6.197 74.23-5.052 41.505-7.865 83.56-15.274 124.677-2.898 15.858-8.817 25.727-22.621 34.378-17.933-12.262-34.955-25.61-52.143-38.878-14.85-11.46-51.138-34.612-58.443-50.905-3.506-9.431 1.58-26.84 6.386-34.939 22.331-37.627 86.406-134.035 127.182-147.56m796.845 312.972c2.3 5.467 4.73 11.266 5.04 17.255.35 6.609-2.46 12.35-6.93 17.102-12.56 13.352-43.65 13.285-60.44 13.444-118.59 1.125-326.58-55.735-412.67-141.077-9.42-9.336-20.22-22.374-19.84-36.379.24-8.619 4.9-16.544 11.15-22.259 22.49-20.575 62.57-20.062 90.98-18.517a647.5 647.5 0 0 1 317.13 106.264c27.74 18.26 46.68 30.949 69.26 56.157 1.82 2.356 4.38 5.884 6.32 8.01"/><path fill="#8e9aa8" d="M875.461 1029.88c2.832-2.08 12.943-12.95 19.699-18.19 7.389 46.11 13.078 88.29 10.961 135.16-1.059 23.44.944 47.99-.674 71.54-3.103 42.38-7.769 85.76-11.901 128.11l-20.162 204.1c-3.483 33.96-8.044 67.65-10.735 101.69q-44.909-.405-89.818-.21c.475-28.61 2.866-59.18 4.232-87.89l12.693-233.7 4.664-92.5c.771-16.89-.05-36.47 3.604-53 7.852-35.53 54.982-126.79 77.437-155.11m-327.558-14.89c6.513 1.13 8.331.94 12.133 6.24.45.63.886 1.28 1.31 1.93 2.02 2.98 9.128 13.94 11.033 16.11 23.854 37.19 57.277 99.03 73.044 141.7 1.836 4.97 3.699 38.91 4.136 45.95 1.965 31.2 3.73 62.4 5.295 93.62l18.315 332.18c-27.984-1.46-63.127-.81-91.422-.43-2.544-33.32-7.014-67.31-10.043-100.67a23913 23913 0 0 1-21.941-258.65l-6.959-90.19c-1.802-22.9-4.297-51.97-4.474-74.71a587.7 587.7 0 0 1 9.573-113.08"/><path fill="#6f7c8b" d="m1756.04 795.41 10.53-2.831c15.67 4.493 23.05 8.253 37.43 15.47l.12 593.351-.33 165.15c0 25.62.36 51.24.18 76.85-.07 9.71-4.35 13.23-12.36 17.44-14.53.39-20.43-.47-34.75-3.36l.12-35.31-.3-511.93c.08-102.73 1.92-212.526-.64-314.83"/><path fill="#3a434d" d="M1290.94 614.085c18.69-9.262 45.31-20.147 64.89-28.604 60.11-25.971 117.96-55.815 185.01-39.133 78.41 19.509 113.1 94.089 151.64 158.546 10.98 20.918 22.28 39.796 34.36 60.134l-1.23.531c-2.59-.657-13.61-11.576-16.82-14.076-112.46-87.493-274.55-150.625-417.85-137.398"/><path fill="#6f7c8b" d="M537.399 1172.72c2.36 12.17 3.72 40.65 4.779 54.35l8.552 110.44 18.095 210.99c2.62 29.03 6.319 58.64 8.582 87.55-11.101-.05-22.096-.31-33.153.68A1630 1630 0 0 1 531 1605.02l-43.069-105.52c-8.575-21.09-27.147-61.1-27.515-81.84-.503-28.33 16.943-71.46 26.33-99.25a5054 5054 0 0 1 50.653-145.69m371.56 3.81c.452.79.706 1.19 1.07 2.11 5.955 15.11 10.329 31.31 15.639 46.71 11.291 32.74 61.653 171.32 59.225 198.39-1.887 21.05-17.597 53.02-25.731 73.55-14.747 37.23-29.434 74.89-45.754 111.46-4.365 9.32-7.67 17.14-9.894 27.19l-36.84.91 23.434-229.25c8.085-76.01 16.852-154.88 18.851-231.07"/><path fill="#3a434d" d="M1591.51 1658.05c3.28 2.01 5.47 3.72 9.24 4.51 2.69 1.45 7.68 3.34 10.52 4.25 72.17 23.09 302.07 27.85 364.71-4.09.17 21.47.15 42.93-.08 64.4-17.77 14.44-64.05 19.19-87.7 21.55a827 827 0 0 1-63.71 4.17c-42.09 1.04-198.41.26-228.47-25.92-1.62-1.41-2.71-2.57-3.35-4.68-3.29-10.87.08-48.18-1.06-63.02z"/><path fill="#c9d0d8" d="M503.873 471.016c5.591-.105 15.405 2.011 19.844 5.69 28.424 23.556 52.192 52.984 74.247 83.435 16.932 23.376 51.042 63.197 50.423 93.426-2.224 14.561-38.86 36.451-52.64 46.724-12.735 9.198-54.113 44.734-67.562 42.684-13.807-8.436-16.156-36.714-17.6-51.562-4.701-48.325-9.857-96.594-14.99-144.874-.82-13.321-3.788-27.349-3.715-40.653.085-15.566-2.095-25.908 11.993-34.87"/><path fill="#8e9aa8" d="M769.234 1655.14c14.979-.8 35.126.44 50.779.14 16.04.4 31.715-.65 47.701 1.18 25.072 2.87 33.482 37.2 18.413 54.59-5.775 6.66-11.866 6.26-19.877 6.23-16.524.07-109.555 2.81-118.31-2.52-3.468-2.11-5.217-5.75-6.226-9.56-2.765-10.44-1.314-25.29 4.133-34.66 5.481-9.44 13.38-12.81 23.387-15.4"/><path fill="#12161a" d="M786.38 1680.4c1.399.68.714.19 1.938 1.61-3.577 13.32-4.119 16.11-2.671 29.34-10.073-3.87-3.649-24.11.733-30.95m39.007-.6c1.555 2.1 2.632 28.6 1.28 31.44-4.984-6.05-5.897-24.56-1.28-31.44m28.74.76c1.33 2.54.056 14.06.412 18.05.346 3.87 1.757 10.97-.138 13.7-5.059-6.69-5.773-25.11-.274-31.75"/><path fill="#8e9aa8" d="M576.819 1656.21c24.115-2.44 52.358.69 76.864-.38 5.522-.24 18.844-.14 23.776.82 21.422 4.17 29.944 42.39 16.367 57.62-3.512 3.98-8.199 4.11-13.165 4.22-36.575-1.22-78.585 1.43-114.046-1.65-12.822-1.11-21.457-46.55 10.204-60.63"/><path fill="#12161a" d="M645.804 1679.39c9.414 3.28 6.288 24.12 4.015 31.99-2.21-1.21-1.587-.66-3.063-2.54.564-6.47 1.071-15.37.152-21.73zm-45.651-1.1 1.385.69c1.613 2.48 1.065 3.86.955 6.88-.343 9.35.493 17.14 2.466 26.26-9.585-5.66-7.437-24.4-4.806-33.83"/><path fill="#d2ee9a" d="M623.911 743.258c37.187-2.806 58.659 20.731 66.018 54.765-18.499 18.871-9.184 21.93-42.466 29.084-35.572 1.467-54.958-19.149-69.412-49.242q.746-1.313 1.517-2.609c11.026-18.469 23.935-26.731 44.343-31.998"/><path fill="#12161a" d="M638.426 749.804c24.929 7.86 20.257 60.434.32 69.312-22.249-8.63-25.01-56.36-.32-69.312"/><path fill="#1b2127" d="M637.665 753.946c21.568 7.755 17.698 52.902.954 61.329-11.378-4.165-14.874-23.218-14.109-34.013.893-12.587 3.919-19.17 13.155-27.316"/><path fill="#d2ee9a" d="M814.003 744.244c20.107-1.449 69.143 11.257 56.274 41.111-7.673 17.8-25.209 32.338-43.47 39.286-27.183 4.537-45.883-4.033-59.308-28.297 5.92-25.661 19.641-45.832 46.504-52.1"/><path fill="#12161a" d="M826.878 809.334c-16.35 22.112-28.076-19.256-25.481-33.007 2.226-11.797 3.823-31.004 22.195-23.394 4.549 1.883 8.008 13.688 8.701 18.02 3.365 11.761 1.002 27.909-5.415 38.381"/><path fill="#6f7c8b" d="M1807.33 1600.94c35.55.08 70.81-.91 106.23-1.01 9.48 6.15 26.04 27.03 34.56 36.39-23.96-6.37-116.66-17.98-140.51-15.84.11-6.94.07-12.62-.28-19.54"/><path fill="#8e9aa8" d="M722.184 956.316c11.836-.434 18.291 4.438 29.392 7.486 8.849 2.43 15.662 2.257 24.735 2.188-16.917 18.308-24.779 19.685-49.292 21.828-26.22.537-34.48-2.579-53.927-19.589 21.946.741 30.112-4.663 49.092-11.913"/><path fill="#c9d0d8" d="M1090.25 1190.46c20.53.07 184.75-1.76 191.33 1.08 1.39 3.3.82 5.28.45 8.85-46.72-1.13-93.9.46-140.66-.21-8.01-.11-49.38 1.73-53.43-1.31-.53-3.32-.23-3.99.26-7.29z"/><path fill="#6f7c8b" d="M875.765 1639.47c8.628-.39 20.259-1.4 28.663-.73 34.325 2.75 28.328 56.54-9.061 47.96 1.295-8.95 10.531-23.96 2.668-31.69-.649.69-2.169 18.1-2.606 21.16-12.984-26.75-25.449-16.75-30.273-28.84.57-7.86 4.529-7.68 10.609-7.86m-330.665.76c8.187-.51 28.246-3.72 33.375 3.09.682 3.59.706 3.4.168 7-15.907 14.06-20.661 6.74-26.333 32.98-.637 15.23-19.755 6.11-24.906-4.33a26.4 26.4 0 0 1-.98-21.15c3.288-8.39 10.697-14.04 18.676-17.59"/><path fill="#c9d0d8" d="M1088.09 1204.44c36.28-1.44 78.5.11 115.4-.33 18.69-.23 61.3-1.13 78.08.26 2.04 2.32 1.32 2.16 1.31 6.23-38.39 1.47-84.77.26-123.65.31l-44.56.15c-6.91.03-19.22.44-25.69-.32-1.86-2.48-1.15-2.29-.89-6.3"/><path fill="url(#a)" d="M1122.27 1180.33c8.51.13 36.98-1.73 41.9 3.35.28 3.59.75 2.02-1.48 4.86-8.63-.27-36.09 1.45-40.92-2.08-1.04-3.68-.83-1.74.5-6.13"/></svg>